<?xml version="1.0" encoding="UTF-8"?>
<svg id="Layer_1" xmlns="http://www.w3.org/2000/svg" version="1.1" viewBox="0 0 566.93 566.93">
  <!-- Generator: Adobe Illustrator 29.8.2, SVG Export Plug-In . SVG Version: 2.1.1 Build 3)  -->
  <defs>
    <style>
      .st0 {
        fill: #e3cdb5;
      }
    </style>
  </defs>
  <path class="st0" d="M114.07,302.02h15.36c11.76,0,19.81-7.47,19.81-18.29s-7.94-18.29-19.44-18.29h-15.73l9.3,7.42h6.22c5.91,0,10.19,4.44,10.19,10.92s-4.08,10.82-9.77,10.82h-6.64M154.25,302.02h9.3v-36.58h-9.3v36.58ZM193.42,278.5c0,3.87-2.35,5.91-6.38,5.91h-7.05v-11.65h7.05c4.02,0,6.38,1.93,6.38,5.75M203.3,302.02l-7.68-12.07c4.29-2.14,6.64-6.17,6.64-11.76,0-8.15-5.54-12.75-15.21-12.75h-16.36v36.58h9.3v-10.3h7.32l5.44,10.3h10.56ZM208.09,302.02h29.22v-7.32h-19.91v-7.37h17.46v-7.32h-17.46v-7.27h19.34v-7.32h-28.64v36.58ZM249.82,283.52c0-6.01,4.39-10.61,10.19-10.61,3.24,0,6.79,1.83,9.2,4.76l5.38-6.38c-3.66-3.76-9.3-6.17-14.74-6.17-11.13,0-19.55,7.94-19.55,18.5s8.21,18.81,19.23,18.81c5.38,0,11.18-2.67,15.1-6.69l-5.44-5.75c-2.56,2.61-6.11,4.29-9.2,4.29-5.8,0-10.19-4.65-10.19-10.77M296.6,272.91h11.03v-7.53h-31.25v7.53h10.92v29.11h9.3v-29.11ZM340.24,278.09l6.17-7.47c-3.87-3.4-9.88-5.54-15.47-5.54-11.81,0-20.43,7.94-20.43,18.66s8.36,18.76,19.7,18.76c5.23,0,11.71-1.99,15.68-4.7v-14.74h-9.35v8.94c-1.99.89-4.02,1.41-5.54,1.41-5.33,0-9.35-4.08-9.35-9.67s3.97-9.62,9.25-9.62c3.19,0,6.85,1.57,9.36,3.97M377.89,283.73c0,5.54-3.87,9.67-8.68,9.67s-8.99-4.13-8.99-9.67,4.13-9.56,8.99-9.56,8.68,4.02,8.68,9.56M389.02,283.68c0-10.71-8.47-18.61-19.96-18.61s-19.96,7.84-19.96,18.61,8.47,18.82,19.96,18.82,19.96-8.05,19.96-18.82M393.3,302.02h26.24v-9.09h-15.36v-27.54h-10.87v36.64ZM447,283.78c0,5.85-3.34,9.72-8.31,9.72h-5.49v-19.55h4.97c5.23,0,8.83,3.92,8.83,9.83M458.08,283.68c0-11.03-7.84-18.29-19.7-18.29h-16.04v36.64h15.68c12.07,0,20.07-7.32,20.07-18.34"/>
  <polygon class="st0" points="122.38 283.73 109.63 273.56 109.63 283.73 109.63 293.9 122.38 283.73"/>
</svg>